<svg width="126" height="50" viewBox="0 0 126 50" fill="none" xmlns="http://www.w3.org/2000/svg">
<path fill-rule="evenodd" clip-rule="evenodd" d="M15.4341 33.9266C16.5036 34.5102 17.723 34.761 18.936 34.6468C20.1491 34.5325 21.3002 34.0584 22.2419 33.2854C23.1837 32.5123 23.8729 31.4754 24.2212 30.308C24.5696 29.1404 24.5612 27.8955 24.197 26.7328C23.7354 25.2502 23.571 23.6912 23.7132 22.1449C23.8553 20.5987 24.3012 19.0957 25.0254 17.7222C25.7496 16.3487 26.7377 15.1316 27.9332 14.1407C29.1287 13.1498 30.5079 12.4046 31.992 11.9478C33.143 11.5873 34.1615 10.8944 34.9196 9.95635C35.6777 9.01829 36.1413 7.87695 36.2522 6.67594C36.3632 5.47494 36.1164 4.26794 35.543 3.20694C34.9695 2.14586 34.095 1.27811 33.0296 0.712906C31.9641 0.147704 30.7553 -0.0897866 29.5553 0.0304565C28.3552 0.150625 27.2174 0.623062 26.2852 1.38839C25.353 2.15365 24.668 3.17759 24.3163 4.33128C23.9647 5.48497 23.9622 6.7169 24.3091 7.87201C25.2196 10.8541 24.9117 14.0756 23.4528 16.8312C21.9937 19.5869 19.5026 21.6523 16.5243 22.5754C15.3486 22.9164 14.3023 23.6024 13.5209 24.5447C12.7394 25.487 12.2588 26.6422 12.1414 27.8607C12.024 29.0792 12.275 30.3049 12.8621 31.3791C13.4492 32.4533 14.3451 33.3266 15.4341 33.8858V33.9266ZM53.0236 40.7128C52.5913 40.0248 52.0263 39.4298 51.3614 38.9627C50.6966 38.4956 49.9453 38.1657 49.1515 37.9922C46.1144 37.2859 43.4805 35.4061 41.8251 32.7637C40.1698 30.1212 39.6277 26.9309 40.3172 23.89C40.5824 22.7147 40.4943 21.4873 40.0641 20.3618C39.6339 19.2363 38.8808 18.2631 37.8993 17.5643C36.9177 16.8655 35.7516 16.4724 34.5473 16.4341C33.3431 16.3959 32.1544 16.7144 31.1306 17.3495C30.1067 17.9847 29.2934 18.9082 28.7926 20.0041C28.292 21.1 28.1262 22.3194 28.3163 23.5092C28.5063 24.6989 29.0437 25.806 29.861 26.6914C30.6781 27.5768 31.7387 28.201 32.9095 28.4855C34.4241 28.8271 35.8564 29.4643 37.1243 30.3606C38.3922 31.2568 39.4707 32.3946 40.298 33.7084C41.1253 35.0223 41.6852 36.4866 41.9455 38.0172C42.2059 39.5479 42.1616 41.115 41.8152 42.6285C41.61 43.6042 41.6466 44.6153 41.9217 45.5735C42.1969 46.5318 42.7023 47.4082 43.3938 48.1266C44.0853 48.8448 44.9419 49.3831 45.8891 49.6944C46.8363 50.0057 47.8452 50.0806 48.8279 49.9126C49.8108 49.7447 50.7375 49.3389 51.5276 48.7307C52.3176 48.1224 52.9468 47.3303 53.3606 46.4232C53.7742 45.516 53.9598 44.5214 53.9011 43.5262C53.8424 42.5308 53.5411 41.565 53.0236 40.7128ZM28.8166 33.488C29.555 33.1468 30.354 32.9564 31.1668 32.9278C32.1654 32.9025 33.155 33.1222 34.049 33.5677C34.9431 34.0133 35.7142 34.671 36.2952 35.4835C36.8763 36.2961 37.2494 37.2386 37.3819 38.2286C37.5144 39.2187 37.4023 40.2261 37.0554 41.1628C36.7084 42.0995 36.1373 42.937 35.3919 43.6019C34.6465 44.2669 33.7496 44.739 32.7795 44.9771C31.8094 45.2152 30.7958 45.212 29.8272 44.9677C28.8586 44.7234 27.9647 44.2456 27.2235 43.5759C26.0851 42.5189 24.7493 41.697 23.2927 41.157C21.8361 40.6171 20.2872 40.37 18.7349 40.4296C17.1826 40.4892 15.6574 40.8545 14.2464 41.5046C12.8355 42.1546 11.5668 43.0766 10.5127 44.2178C9.81988 44.9358 8.96178 45.4733 8.01332 45.7833C7.06492 46.0933 6.05498 46.1665 5.07178 45.9965C4.08857 45.8264 3.16196 45.4184 2.37275 44.8078C1.58353 44.1972 0.95581 43.4028 0.544243 42.4938C0.132677 41.5848 -0.0500845 40.589 0.0117591 39.593C0.0736775 38.5972 0.378328 37.6316 0.899282 36.7805C1.42016 35.9295 2.14139 35.2189 3.00017 34.7108C3.85886 34.2026 4.82897 33.9123 5.82565 33.8653C6.63539 33.8336 7.44332 33.9632 8.20244 34.2466C8.96163 34.53 9.65689 34.9615 10.2478 35.516C12.535 37.6326 15.5672 38.7576 18.6815 38.6449C21.7957 38.5323 24.7386 37.1912 26.8668 34.9149C27.4154 34.3142 28.0783 33.8292 28.8166 33.488Z" fill="url(#paint0_linear_0_52)"/>
<path d="M61.9116 37.0001V21.7321H63.3636L69.8316 32.3581H68.8416L75.3096 21.7321H76.7616V37.0001H74.6936V25.3621L75.1776 25.4941L70.0736 33.8761H68.6216L63.5176 25.4941L63.9796 25.3621V37.0001H61.9116Z" fill="url(#paint1_linear_0_52)"/>
<path d="M84.7887 37.2201C83.762 37.2201 82.838 36.9781 82.0167 36.4941C81.1954 36.0101 80.5427 35.3574 80.0587 34.5361C79.5747 33.7001 79.3327 32.7687 79.3327 31.7421C79.3327 30.7301 79.5747 29.8207 80.0587 29.0141C80.5427 28.1927 81.1954 27.5401 82.0167 27.0561C82.838 26.5721 83.762 26.3301 84.7887 26.3301C85.8007 26.3301 86.7174 26.5721 87.5387 27.0561C88.3747 27.5254 89.0347 28.1707 89.5187 28.9921C90.0027 29.8134 90.2447 30.7301 90.2447 31.7421C90.2447 32.7687 90.0027 33.7001 89.5187 34.5361C89.0347 35.3574 88.3747 36.0101 87.5387 36.4941C86.7174 36.9781 85.8007 37.2201 84.7887 37.2201ZM84.7887 35.3061C85.4487 35.3061 86.0354 35.1521 86.5487 34.8441C87.062 34.5361 87.4654 34.1181 87.7587 33.5901C88.052 33.0474 88.1987 32.4314 88.1987 31.7421C88.1987 31.0674 88.0447 30.4661 87.7367 29.9381C87.4434 29.4101 87.04 28.9994 86.5267 28.7061C86.028 28.3981 85.4487 28.2441 84.7887 28.2441C84.1287 28.2441 83.542 28.3981 83.0287 28.7061C82.5154 28.9994 82.112 29.4101 81.8187 29.9381C81.5254 30.4661 81.3787 31.0674 81.3787 31.7421C81.3787 32.4314 81.5254 33.0474 81.8187 33.5901C82.112 34.1181 82.5154 34.5361 83.0287 34.8441C83.542 35.1521 84.1287 35.3061 84.7887 35.3061Z" fill="url(#paint2_linear_0_52)"/>
<path d="M99.8676 37.0001V30.9061C99.8676 30.1141 99.6183 29.4614 99.1196 28.9481C98.621 28.4347 97.9756 28.1781 97.1836 28.1781C96.6556 28.1781 96.1863 28.2954 95.7756 28.5301C95.365 28.7647 95.0423 29.0874 94.8076 29.4981C94.573 29.9087 94.4556 30.3781 94.4556 30.9061L93.6416 30.4441C93.6416 29.6521 93.8176 28.9481 94.1696 28.3321C94.5216 27.7161 95.013 27.2321 95.6436 26.8801C96.2743 26.5134 96.9856 26.3301 97.7776 26.3301C98.5696 26.3301 99.2663 26.5281 99.8676 26.9241C100.484 27.3201 100.968 27.8407 101.32 28.4861C101.672 29.1167 101.848 29.7914 101.848 30.5101V37.0001H99.8676ZM92.4756 37.0001V26.5501H94.4556V37.0001H92.4756Z" fill="url(#paint3_linear_0_52)"/>
<path d="M109.368 37.2201C108.327 37.2201 107.388 36.9854 106.552 36.5161C105.716 36.0321 105.056 35.3794 104.572 34.5581C104.088 33.7367 103.846 32.8054 103.846 31.7641C103.846 30.7374 104.081 29.8134 104.55 28.9921C105.034 28.1707 105.68 27.5254 106.486 27.0561C107.308 26.5721 108.224 26.3301 109.236 26.3301C110.204 26.3301 111.055 26.5501 111.788 26.9901C112.536 27.4301 113.116 28.0387 113.526 28.8161C113.952 29.5934 114.164 30.4734 114.164 31.4561C114.164 31.6027 114.157 31.7641 114.142 31.9401C114.128 32.1014 114.098 32.2921 114.054 32.5121H105.232V30.8621H112.998L112.272 31.5001C112.272 30.7961 112.148 30.2021 111.898 29.7181C111.649 29.2194 111.297 28.8381 110.842 28.5741C110.388 28.2954 109.838 28.1561 109.192 28.1561C108.518 28.1561 107.924 28.3027 107.41 28.5961C106.897 28.8894 106.501 29.3001 106.222 29.8281C105.944 30.3561 105.804 30.9794 105.804 31.6981C105.804 32.4314 105.951 33.0767 106.244 33.6341C106.538 34.1767 106.956 34.6021 107.498 34.9101C108.041 35.2034 108.664 35.3501 109.368 35.3501C109.955 35.3501 110.49 35.2474 110.974 35.0421C111.473 34.8367 111.898 34.5287 112.25 34.1181L113.526 35.4161C113.028 36.0027 112.412 36.4501 111.678 36.7581C110.96 37.0661 110.19 37.2201 109.368 37.2201Z" fill="url(#paint4_linear_0_52)"/>
<path d="M119.583 37.0881L115.051 26.5501H117.251L120.617 34.8001H119.913L123.455 26.5501H125.655L120.771 37.0881H119.583ZM116.591 41.3781L119.671 35.0641L120.771 37.0881L118.791 41.3781H116.591Z" fill="url(#paint5_linear_0_52)"/>
<defs>
<linearGradient id="paint0_linear_0_52" x1="26.9559" y1="0" x2="26.9559" y2="50" gradientUnits="userSpaceOnUse">
<stop stop-color="#BDB2FD"/>
<stop offset="1" stop-color="#917FF2"/>
</linearGradient>
<linearGradient id="paint1_linear_0_52" x1="93.7835" y1="21.7321" x2="93.7835" y2="41.3781" gradientUnits="userSpaceOnUse">
<stop stop-color="#BDB2FD"/>
<stop offset="1" stop-color="#917FF2"/>
</linearGradient>
<linearGradient id="paint2_linear_0_52" x1="93.7835" y1="21.7321" x2="93.7835" y2="41.3781" gradientUnits="userSpaceOnUse">
<stop stop-color="#BDB2FD"/>
<stop offset="1" stop-color="#917FF2"/>
</linearGradient>
<linearGradient id="paint3_linear_0_52" x1="93.7835" y1="21.7321" x2="93.7835" y2="41.3781" gradientUnits="userSpaceOnUse">
<stop stop-color="#BDB2FD"/>
<stop offset="1" stop-color="#917FF2"/>
</linearGradient>
<linearGradient id="paint4_linear_0_52" x1="93.7835" y1="21.7321" x2="93.7835" y2="41.3781" gradientUnits="userSpaceOnUse">
<stop stop-color="#BDB2FD"/>
<stop offset="1" stop-color="#917FF2"/>
</linearGradient>
<linearGradient id="paint5_linear_0_52" x1="93.7835" y1="21.7321" x2="93.7835" y2="41.3781" gradientUnits="userSpaceOnUse">
<stop stop-color="#BDB2FD"/>
<stop offset="1" stop-color="#917FF2"/>
</linearGradient>
</defs>
</svg>
